<svg xmlns="http://www.w3.org/2000/svg" viewBox="0 0 32 32" width="32" height="32">
  <!-- Background circle -->
  <circle cx="16" cy="16" r="16" fill="#1a1a1a"/>
  <!-- Lightbulb glow effect -->
  <circle cx="16" cy="13" r="8" fill="#b8860b" opacity="0.3"/>
  <!-- Lightbulb body -->
  <path d="M16 4c-4.4 0-8 3.6-8 8 0 2.8 1.5 5.3 3.8 6.7.3.2.5.5.6.9l.6 3.4h6l.6-3.4c.1-.4.3-.7.6-.9C22.5 17.3 24 14.8 24 12c0-4.4-3.6-8-8-8z" fill="#b8860b"/>
  <!-- Lightbulb base -->
  <rect x="12" y="24" width="8" height="2" rx="1" fill="#d4a84b"/>
  <rect x="12" y="27" width="8" height="2" rx="1" fill="#d4a84b"/>
  <!-- Lightbulb shine -->
  <path d="M13 10c0-1.7 1.3-3 3-3" stroke="white" stroke-width="1.5" stroke-linecap="round" fill="none" opacity="0.6"/>
</svg>
